<svg xmlns="http://www.w3.org/2000/svg" viewBox="0 0 512 512">
  <!-- Dark rounded background -->
  <rect width="512" height="512" rx="80" fill="#1a1d21"/>

  <!-- Left page -->
  <path d="M 75 155 L 248 138 L 248 392 L 75 372 Z" fill="#0d6efd"/>
  <!-- Right page -->
  <path d="M 437 155 L 264 138 L 264 392 L 437 372 Z" fill="#4d9bf8"/>

  <!-- Spine -->
  <rect x="245" y="133" width="22" height="264" rx="4" fill="#e0e0e0"/>
  <rect x="245" y="152" width="22" height="5" fill="#a0a0a0"/>
  <rect x="245" y="369" width="22" height="5" fill="#a0a0a0"/>

  <!-- Text lines — left page -->
  <rect x="100" y="195" width="122" height="13" rx="4" fill="#fff" opacity="0.35"/>
  <rect x="100" y="225" width="122" height="13" rx="4" fill="#fff" opacity="0.35"/>
  <rect x="100" y="255" width="122" height="13" rx="4" fill="#fff" opacity="0.35"/>
  <rect x="100" y="285" width=" 92" height="13" rx="4" fill="#fff" opacity="0.35"/>
  <rect x="100" y="315" width="122" height="13" rx="4" fill="#fff" opacity="0.35"/>
  <rect x="100" y="345" width=" 72" height="13" rx="4" fill="#fff" opacity="0.35"/>

  <!-- Text lines — right page -->
  <rect x="290" y="195" width="122" height="13" rx="4" fill="#fff" opacity="0.35"/>
  <rect x="290" y="225" width="122" height="13" rx="4" fill="#fff" opacity="0.35"/>
  <rect x="290" y="255" width="122" height="13" rx="4" fill="#fff" opacity="0.35"/>
  <rect x="290" y="285" width=" 92" height="13" rx="4" fill="#fff" opacity="0.35"/>
  <rect x="290" y="315" width="122" height="13" rx="4" fill="#fff" opacity="0.35"/>
  <rect x="290" y="345" width=" 72" height="13" rx="4" fill="#fff" opacity="0.35"/>
</svg>
